<svg width="368" height="83" viewBox="0 0 368 83" fill="none" xmlns="http://www.w3.org/2000/svg">
<g id="&#208;&#177;&#208;&#184;&#208;&#183;&#208;&#189;&#208;&#181;&#209;&#129;">
<path d="M31.7139 28.4409C36.755 28.4409 41.2694 29.5695 45.2572 31.8267C49.2449 34.084 52.3674 37.2441 54.6246 41.307C56.8818 45.37 58.0104 49.9973 58.0104 55.1889C58.0104 60.3805 56.769 65.0454 54.286 69.1836C51.8783 73.3219 48.4549 76.5572 44.0157 78.8897C39.6517 81.1469 34.6859 82.2755 29.1181 82.2755C24.3779 82.2755 20.1268 81.4478 16.3648 79.7926C12.6028 78.062 9.44268 75.5791 6.88451 72.3438C4.55205 69.4094 2.82152 65.9107 1.69291 61.8477C0.564304 57.7847 0 52.8941 0 47.1758C0 35.2878 2.48294 25.9956 7.44881 19.2992C12.4899 12.5275 20.8792 8.61504 32.6168 7.56167C35.4759 7.26071 37.6579 6.84689 39.1627 6.3202C40.6675 5.79352 41.7585 5.07874 42.4356 4.17585C43.188 3.19772 43.7147 1.80577 44.0157 0L53.8346 0.790029C53.5336 5.07874 52.4426 8.42694 50.5616 10.8346C48.7558 13.1671 46.3858 14.8224 43.4514 15.8005C40.5923 16.7786 37.056 17.4558 32.8425 17.832C25.3184 18.5092 19.9764 20.503 16.8163 23.8136C13.7314 27.1242 11.9256 32.0148 11.3989 38.4855C16.2143 31.7891 22.986 28.4409 31.7139 28.4409ZM29.3438 72.3438C34.4602 72.3438 38.5984 70.7637 41.7585 67.6036C44.9938 64.4435 46.6115 60.3429 46.6115 55.3018C46.6115 50.2607 44.9938 46.1977 41.7585 43.1128C38.5984 39.9527 34.4602 38.3727 29.3438 38.3727C24.077 38.3727 19.8259 39.9527 16.5905 43.1128C13.4304 46.1977 11.8504 50.2607 11.8504 55.3018C11.8504 60.3429 13.468 64.4435 16.7034 67.6036C19.9387 70.7637 24.1522 72.3438 29.3438 72.3438Z" fill="white" fill-opacity="0.6"/>
<path d="M77.6359 71.328L103.03 22.7979H118.943V81.1469H108.221V32.7296L82.8275 81.1469H66.9141V22.7979H77.6359V71.328Z" fill="white" fill-opacity="0.6"/>
<path d="M163.718 51.3517C166.803 52.2545 169.361 53.9098 171.392 56.3175C173.424 58.65 174.44 61.5467 174.44 65.0078C174.44 68.2431 173.499 71.1775 171.618 73.8109C169.737 76.3691 167.028 78.4382 163.492 80.0183C160.031 81.5231 156.006 82.2755 151.416 82.2755C145.246 82.2755 139.942 80.8459 135.503 77.9868C131.063 75.0524 128.129 71.1399 126.699 66.2493L136.97 64.5564C139.453 69.9737 144.23 72.6823 151.303 72.6823C155.216 72.6823 158.188 71.9675 160.219 70.538C162.326 69.0332 163.379 66.9641 163.379 64.3306C163.379 61.9982 162.401 60.1172 160.445 58.6876C158.564 57.258 155.517 56.5432 151.303 56.5432H143.629V46.8372H151.303C154.915 46.8372 157.661 46.16 159.542 44.8057C161.498 43.4514 162.476 41.6456 162.476 39.3884C162.476 36.9807 161.423 35.0245 159.316 33.5196C157.285 32.0148 154.764 31.2624 151.755 31.2624C148.82 31.2624 146.187 31.9772 143.854 33.4068C141.522 34.8364 139.754 36.7926 138.55 39.2755L128.279 37.4698C130.01 32.4287 132.982 28.5538 137.195 25.8451C141.484 23.0612 146.45 21.6693 152.093 21.6693C156.156 21.6693 159.805 22.3841 163.041 23.8136C166.351 25.2432 168.909 27.2371 170.715 29.7952C172.596 32.3534 173.537 35.2126 173.537 38.3727C173.537 41.608 172.634 44.3543 170.828 46.6115C169.022 48.8687 166.652 50.4488 163.718 51.3517Z" fill="white" fill-opacity="0.6"/>
<path d="M224.342 46.6115V22.7979H235.403V81.1469H224.342V56.769H196.24V81.1469H185.18V22.7979H196.24V46.6115H224.342Z" fill="white" fill-opacity="0.6"/>
<path d="M304.821 51.5774C304.821 53.0822 304.783 54.2484 304.708 55.076H256.517C257.119 60.2676 259.15 64.4059 262.611 67.4907C266.072 70.5756 270.474 72.118 275.816 72.118C279.503 72.118 282.776 71.4032 285.635 69.9737C288.569 68.4689 290.789 66.5126 292.293 64.1049L302.677 65.7978C300.419 71.0647 296.77 75.1276 291.729 77.9868C286.763 80.8459 281.233 82.2755 275.139 82.2755C269.345 82.2755 264.154 80.9964 259.564 78.4382C254.974 75.8048 251.4 72.1933 248.842 67.6036C246.284 63.0139 245.005 57.8223 245.005 52.0288C245.005 46.16 246.284 40.9308 248.842 36.3412C251.4 31.7515 254.937 28.1776 259.451 25.6194C263.965 22.986 269.119 21.6693 274.913 21.6693C280.631 21.6693 285.748 22.986 290.262 25.6194C294.852 28.1776 298.426 31.7515 300.984 36.3412C303.542 40.8556 304.821 45.9343 304.821 51.5774ZM274.913 31.4882C270.474 31.4882 266.636 32.8049 263.401 35.4383C260.241 38.0717 258.134 41.608 257.081 46.0472H292.745C291.767 41.6832 289.66 38.1846 286.425 35.5511C283.265 32.8425 279.427 31.4882 274.913 31.4882Z" fill="white" fill-opacity="0.6"/>
<path d="M340.116 82.2755C334.322 82.2755 329.093 80.9964 324.428 78.4382C319.838 75.8048 316.264 72.1933 313.706 67.6036C311.148 63.0139 309.869 57.8223 309.869 52.0288C309.869 46.16 311.148 40.9308 313.706 36.3412C316.264 31.7515 319.838 28.1776 324.428 25.6194C329.018 22.986 334.247 21.6693 340.116 21.6693C346.361 21.6693 351.928 23.1741 356.819 26.1837C361.785 29.1933 365.321 33.5196 367.428 39.1627L357.045 40.8556C355.69 38.1469 353.546 35.965 350.612 34.3097C347.752 32.6544 344.48 31.8267 340.793 31.8267C335.074 31.8267 330.41 33.7077 326.798 37.4698C323.262 41.2318 321.494 46.0848 321.494 52.0288C321.494 57.9728 323.262 62.8258 326.798 66.5878C330.41 70.2746 335.074 72.118 340.793 72.118C344.63 72.118 348.016 71.2528 350.95 69.5222C353.96 67.7917 356.142 65.4969 357.496 62.6377L367.879 64.3306C365.773 70.0489 362.161 74.4881 357.045 77.6482C352.004 80.7331 346.361 82.2755 340.116 82.2755Z" fill="white" fill-opacity="0.6"/>
</g>
</svg>
