<svg width="120" height="234" viewBox="0 0 120 234" fill="none" xmlns="http://www.w3.org/2000/svg">
<g clip-path="url(#clip0_312_125475)">
<g clip-path="url(#paint0_angular_312_125475_clip_path)" data-figma-skip-parse="true"><g transform="matrix(-0.0539296 0.0541371 -0.0539296 -0.0541371 60.2656 59.5762)"><foreignObject x="-1136.27" y="-1136.27" width="2272.53" height="2272.53"><div xmlns="http://www.w3.org/1999/xhtml" style="background:conic-gradient(from 90deg,rgba(0, 190, 255, 1) 0deg,rgba(0, 191, 255, 1) 0.3258deg,rgba(0, 191, 255, 1) 43.4409deg,rgba(71, 26, 255, 1) 110.236deg,rgba(71, 26, 255, 1) 159.01deg,rgba(148, 0, 255, 1) 224.773deg,rgba(148, 0, 255, 1) 268.677deg,rgba(0, 190, 255, 1) 360deg);height:100%;width:100%;opacity:1"></div></foreignObject></g></g><rect x="0.265625" y="-0.423828" width="120" height="120" data-figma-gradient-fill="{&#34;type&#34;:&#34;GRADIENT_ANGULAR&#34;,&#34;stops&#34;:[{&#34;color&#34;:{&#34;r&#34;:0.0,&#34;g&#34;:0.750,&#34;b&#34;:1.0,&#34;a&#34;:1.0},&#34;position&#34;:0.00090499955695122480},{&#34;color&#34;:{&#34;r&#34;:0.0,&#34;g&#34;:0.750,&#34;b&#34;:1.0,&#34;a&#34;:1.0},&#34;position&#34;:0.12066918611526489},{&#34;color&#34;:{&#34;r&#34;:0.27843138575553894,&#34;g&#34;:0.10196078568696976,&#34;b&#34;:1.0,&#34;a&#34;:1.0},&#34;position&#34;:0.30621203780174255},{&#34;color&#34;:{&#34;r&#34;:0.27843138575553894,&#34;g&#34;:0.10196078568696976,&#34;b&#34;:1.0,&#34;a&#34;:1.0},&#34;position&#34;:0.44169366359710693},{&#34;color&#34;:{&#34;r&#34;:0.58333331346511841,&#34;g&#34;:0.0,&#34;b&#34;:1.0,&#34;a&#34;:1.0},&#34;position&#34;:0.62436932325363159},{&#34;color&#34;:{&#34;r&#34;:0.58333331346511841,&#34;g&#34;:0.0,&#34;b&#34;:1.0,&#34;a&#34;:1.0},&#34;position&#34;:0.74632394313812256}],&#34;transform&#34;:{&#34;m00&#34;:-107.85926818847656,&#34;m01&#34;:-107.85925292968750,&#34;m02&#34;:168.12489318847656,&#34;m10&#34;:108.27422332763672,&#34;m11&#34;:-108.27423858642578,&#34;m12&#34;:59.576183319091797},&#34;opacity&#34;:1.0,&#34;blendMode&#34;:&#34;NORMAL&#34;,&#34;stopsVar&#34;:[{&#34;color&#34;:{&#34;r&#34;:0.0,&#34;g&#34;:0.750,&#34;b&#34;:1.0,&#34;a&#34;:1.0},&#34;position&#34;:0.00090499955695122480},{&#34;color&#34;:{&#34;r&#34;:0.0,&#34;g&#34;:0.750,&#34;b&#34;:1.0,&#34;a&#34;:1.0},&#34;position&#34;:0.12066918611526489},{&#34;color&#34;:{&#34;r&#34;:0.27843138575553894,&#34;g&#34;:0.10196078568696976,&#34;b&#34;:1.0,&#34;a&#34;:1.0},&#34;position&#34;:0.30621203780174255},{&#34;color&#34;:{&#34;r&#34;:0.27843138575553894,&#34;g&#34;:0.10196078568696976,&#34;b&#34;:1.0,&#34;a&#34;:1.0},&#34;position&#34;:0.44169366359710693},{&#34;color&#34;:{&#34;r&#34;:0.58333331346511841,&#34;g&#34;:0.0,&#34;b&#34;:1.0,&#34;a&#34;:1.0},&#34;position&#34;:0.62436932325363159},{&#34;color&#34;:{&#34;r&#34;:0.58333331346511841,&#34;g&#34;:0.0,&#34;b&#34;:1.0,&#34;a&#34;:1.0},&#34;position&#34;:0.74632394313812256}],&#34;visible&#34;:true}"/>
<g filter="url(#filter0_f_312_125475)">
<g clip-path="url(#paint1_angular_312_125475_clip_path)" data-figma-skip-parse="true"><g transform="matrix(-0.0743639 0.07465 -0.0743639 -0.07465 60 59.8418)"><foreignObject x="-1129.17" y="-1129.17" width="2258.33" height="2258.33"><div xmlns="http://www.w3.org/1999/xhtml" style="background:conic-gradient(from 90deg,rgba(0, 190, 255, 1) 0deg,rgba(0, 191, 255, 1) 0.3258deg,rgba(0, 191, 255, 1) 43.4409deg,rgba(71, 26, 255, 1) 110.236deg,rgba(71, 26, 255, 1) 159.01deg,rgba(148, 0, 255, 1) 224.773deg,rgba(148, 0, 255, 1) 268.677deg,rgba(0, 190, 255, 1) 360deg);height:100%;width:100%;opacity:1"></div></foreignObject></g></g><path fill-rule="evenodd" clip-rule="evenodd" d="M-18.7667 -3.01612C-22.7344 4.77094 -22.7344 14.9648 -22.7344 35.3524V84.3312C-22.7344 104.719 -22.7344 114.913 -18.7667 122.7C-15.2766 129.549 -9.70761 135.118 -2.85792 138.609C4.92914 142.576 15.123 142.576 35.5106 142.576H84.4894C104.877 142.576 115.071 142.576 122.858 138.609C129.708 135.118 135.277 129.549 138.767 122.7C142.734 114.913 142.734 104.719 142.734 84.3313V35.3524C142.734 14.9648 142.734 4.77094 138.767 -3.01612C135.277 -9.86581 129.708 -15.4348 122.858 -18.9249C115.071 -22.8926 104.877 -22.8926 84.4895 -22.8926H35.5106C15.123 -22.8926 4.92914 -22.8926 -2.85792 -18.9249C-9.70761 -15.4348 -15.2766 -9.86581 -18.7667 -3.01612ZM2.92291 14.2926C0.0477594 19.9354 0.0477594 27.3222 0.0477594 42.0959V77.5878C0.0477594 92.3614 0.0477594 99.7483 2.92291 105.391C5.45196 110.355 9.48745 114.39 14.451 116.919C20.0938 119.794 27.4806 119.794 42.2543 119.794H77.7462C92.5198 119.794 99.9067 119.794 105.549 116.919C110.513 114.39 114.549 110.355 117.078 105.391C119.953 99.7483 119.953 92.3614 119.953 77.5878V42.0959C119.953 27.3222 119.953 19.9354 117.078 14.2926C114.549 9.32904 110.513 5.29355 105.549 2.7645C99.9067 -0.110647 92.5198 -0.110647 77.7462 -0.110647H42.2543C27.4806 -0.110647 20.0938 -0.110647 14.451 2.7645C9.48745 5.29355 5.45196 9.32904 2.92291 14.2926Z" data-figma-gradient-fill="{&#34;type&#34;:&#34;GRADIENT_ANGULAR&#34;,&#34;stops&#34;:[{&#34;color&#34;:{&#34;r&#34;:0.0,&#34;g&#34;:0.750,&#34;b&#34;:1.0,&#34;a&#34;:1.0},&#34;position&#34;:0.00090499955695122480},{&#34;color&#34;:{&#34;r&#34;:0.0,&#34;g&#34;:0.750,&#34;b&#34;:1.0,&#34;a&#34;:1.0},&#34;position&#34;:0.12066918611526489},{&#34;color&#34;:{&#34;r&#34;:0.27843138575553894,&#34;g&#34;:0.10196078568696976,&#34;b&#34;:1.0,&#34;a&#34;:1.0},&#34;position&#34;:0.30621203780174255},{&#34;color&#34;:{&#34;r&#34;:0.27843138575553894,&#34;g&#34;:0.10196078568696976,&#34;b&#34;:1.0,&#34;a&#34;:1.0},&#34;position&#34;:0.44169366359710693},{&#34;color&#34;:{&#34;r&#34;:0.58333331346511841,&#34;g&#34;:0.0,&#34;b&#34;:1.0,&#34;a&#34;:1.0},&#34;position&#34;:0.62436932325363159},{&#34;color&#34;:{&#34;r&#34;:0.58333331346511841,&#34;g&#34;:0.0,&#34;b&#34;:1.0,&#34;a&#34;:1.0},&#34;position&#34;:0.74632394313812256}],&#34;transform&#34;:{&#34;m00&#34;:-148.72789001464844,&#34;m01&#34;:-148.72787475585938,&#34;m02&#34;:208.72792053222656,&#34;m10&#34;:149.30007934570312,&#34;m11&#34;:-149.30009460449219,&#34;m12&#34;:59.841850280761719},&#34;opacity&#34;:1.0,&#34;blendMode&#34;:&#34;NORMAL&#34;,&#34;stopsVar&#34;:[{&#34;color&#34;:{&#34;r&#34;:0.0,&#34;g&#34;:0.750,&#34;b&#34;:1.0,&#34;a&#34;:1.0},&#34;position&#34;:0.00090499955695122480},{&#34;color&#34;:{&#34;r&#34;:0.0,&#34;g&#34;:0.750,&#34;b&#34;:1.0,&#34;a&#34;:1.0},&#34;position&#34;:0.12066918611526489},{&#34;color&#34;:{&#34;r&#34;:0.27843138575553894,&#34;g&#34;:0.10196078568696976,&#34;b&#34;:1.0,&#34;a&#34;:1.0},&#34;position&#34;:0.30621203780174255},{&#34;color&#34;:{&#34;r&#34;:0.27843138575553894,&#34;g&#34;:0.10196078568696976,&#34;b&#34;:1.0,&#34;a&#34;:1.0},&#34;position&#34;:0.44169366359710693},{&#34;color&#34;:{&#34;r&#34;:0.58333331346511841,&#34;g&#34;:0.0,&#34;b&#34;:1.0,&#34;a&#34;:1.0},&#34;position&#34;:0.62436932325363159},{&#34;color&#34;:{&#34;r&#34;:0.58333331346511841,&#34;g&#34;:0.0,&#34;b&#34;:1.0,&#34;a&#34;:1.0},&#34;position&#34;:0.74632394313812256}],&#34;visible&#34;:true}"/>
</g>
<g filter="url(#filter1_f_312_125475)" style="mix-blend-mode:overlay">
<path fill-rule="evenodd" clip-rule="evenodd" d="M-18.7667 -3.0183C-22.7344 4.76866 -22.7344 14.9624 -22.7344 35.3498V84.328C-22.7344 104.715 -22.7344 114.909 -18.7667 122.696C-15.2767 129.546 -9.70776 135.115 -2.85815 138.605C4.92882 142.572 15.1225 142.572 35.5099 142.572H84.4882C104.876 142.572 115.069 142.572 122.856 138.605C129.706 135.115 135.275 129.546 138.765 122.696C142.733 114.909 142.733 104.715 142.733 84.3281V35.3498C142.733 14.9624 142.733 4.76866 138.765 -3.0183C135.275 -9.86791 129.706 -15.4368 122.856 -18.9269C115.069 -22.8945 104.876 -22.8945 84.4882 -22.8945H35.51C15.1225 -22.8945 4.92882 -22.8945 -2.85815 -18.9269C-9.70776 -15.4368 -15.2767 -9.86791 -18.7667 -3.0183ZM2.92261 14.2902C0.0474956 19.9329 0.047496 27.3197 0.047496 42.0932V77.5846C0.047496 92.3581 0.0474956 99.7449 2.92261 105.388C5.45163 110.351 9.48707 114.387 14.4506 116.916C20.0933 119.791 27.48 119.791 42.2536 119.791H77.745C92.5185 119.791 99.9052 119.791 105.548 116.916C110.511 114.387 114.547 110.351 117.076 105.388C119.951 99.7449 119.951 92.3581 119.951 77.5846V42.0932C119.951 27.3197 119.951 19.9329 117.076 14.2902C114.547 9.32671 110.511 5.29127 105.548 2.76225C99.9052 -0.112864 92.5185 -0.112863 77.745 -0.112863H42.2535C27.48 -0.112863 20.0933 -0.112864 14.4506 2.76225C9.48707 5.29127 5.45163 9.32671 2.92261 14.2902Z" fill="white" fill-opacity="0.5"/>
</g>
<foreignObject x="-51" y="-51.3125" width="222" height="222.31"><div xmlns="http://www.w3.org/1999/xhtml" style="backdrop-filter:blur(25.5px);clip-path:url(#bgblur_1_312_125475_clip_path);height:100%;width:100%"></div></foreignObject><g data-figma-bg-blur-radius="51">
<rect y="-0.3125" width="120" height="120.31" fill="white" fill-opacity="0.01" style="mix-blend-mode:darken"/>
</g>
<g filter="url(#filter3_d_312_125475)">
<path d="M47.4313 60.4889C47.4313 58.4353 49.096 56.7706 51.1496 56.7706C53.2032 56.7706 54.868 58.4353 54.868 60.4889V62.7523C54.868 64.8059 53.2032 66.4707 51.1496 66.4707C49.096 66.4707 47.4313 64.8059 47.4313 62.7523V60.4889Z" fill="white" fill-opacity="0.01" shape-rendering="crispEdges"/>
<path d="M65.9936 60.4889C65.9936 58.4353 67.6584 56.7706 69.712 56.7706C71.7656 56.7706 73.4303 58.4353 73.4303 60.4889V62.7523C73.4303 64.8059 71.7656 66.4707 69.712 66.4707C67.6584 66.4707 65.9936 64.8059 65.9936 62.7523V60.4889Z" fill="white" fill-opacity="0.01" shape-rendering="crispEdges"/>
<path fill-rule="evenodd" clip-rule="evenodd" d="M76.62 87.0763L59.5374 95.7562C58.0726 96.5005 56.3382 95.4363 56.3382 93.7932V87.6436H52.7666C49.4958 87.6436 47.8604 87.6436 46.4862 87.4738C36.6324 86.2565 28.7903 78.7402 27.0854 69.0505C26.1509 68.9856 25.4755 68.8471 24.8954 68.5516C23.9353 68.0624 23.1547 67.2818 22.6655 66.3217C22.1094 65.2302 22.1094 63.8013 22.1094 60.9436C22.1094 58.086 22.1094 56.6571 22.6655 55.5656C23.1547 54.6055 23.9353 53.8249 24.8954 53.3357C25.5329 53.0109 26.2856 52.8758 27.3708 52.8196C29.5429 43.7984 37.1024 36.9268 46.4862 35.7675C47.8604 35.5977 49.4958 35.5977 52.7666 35.5977H58.3629L59.072 32.7431C56.9165 32.1341 55.3369 30.1525 55.3369 27.802C55.3369 24.9666 57.6355 22.668 60.4709 22.668C63.3064 22.668 65.605 24.9666 65.605 27.802C65.605 30.1525 64.0255 32.134 61.87 32.7431L62.5791 35.5977H68.0741C71.345 35.5977 72.9804 35.5977 74.3546 35.7675C83.7507 36.9283 91.3176 43.8164 93.4785 52.8551C94.2939 52.9265 94.9042 53.0654 95.4347 53.3357C96.3948 53.8249 97.1754 54.6055 97.6646 55.5656C98.2208 56.6571 98.2208 58.086 98.2208 60.9436C98.2208 63.8013 98.2208 65.2302 97.6646 66.3217C97.1754 67.2818 96.3948 68.0624 95.4347 68.5516C94.9679 68.7894 94.4393 68.9256 93.7636 69.0035C92.2071 77.9601 85.4089 85.0681 76.62 87.0763ZM68.0741 41.9721H52.7666C49.3056 41.9721 48.1545 41.9842 47.2677 42.0937C39.9285 43.0004 34.1463 48.7826 33.2397 56.1218C33.1301 57.0086 33.118 58.1597 33.118 61.6206C33.118 65.0816 33.1301 66.2327 33.2397 67.1195C34.1463 74.4587 39.9285 80.2409 47.2677 81.1476C48.1545 81.2571 49.3056 81.2692 52.7666 81.2692H68.0742C71.5351 81.2692 72.6862 81.2571 73.573 81.1476C80.9123 80.2409 86.6944 74.4587 87.6011 67.1195C87.7107 66.2327 87.7228 65.0816 87.7228 61.6206C87.7228 58.1597 87.7107 57.0086 87.6011 56.1218C86.6944 48.7826 80.9123 43.0004 73.573 42.0937C72.6862 41.9842 71.5351 41.9721 68.0741 41.9721Z" fill="white" fill-opacity="0.01" shape-rendering="crispEdges"/>
</g>
<path d="M47.4313 60.4889C47.4313 58.4353 49.096 56.7706 51.1496 56.7706C53.2032 56.7706 54.868 58.4353 54.868 60.4889V62.7523C54.868 64.8059 53.2032 66.4707 51.1496 66.4707C49.096 66.4707 47.4313 64.8059 47.4313 62.7523V60.4889Z" fill="white"/>
<path d="M65.9936 60.4889C65.9936 58.4353 67.6584 56.7706 69.712 56.7706C71.7656 56.7706 73.4303 58.4353 73.4303 60.4889V62.7523C73.4303 64.8059 71.7656 66.4707 69.712 66.4707C67.6584 66.4707 65.9936 64.8059 65.9936 62.7523V60.4889Z" fill="white"/>
<path fill-rule="evenodd" clip-rule="evenodd" d="M76.62 87.0763L59.5374 95.7562C58.0726 96.5005 56.3382 95.4363 56.3382 93.7932V87.6436H52.7666C49.4958 87.6436 47.8604 87.6436 46.4862 87.4738C36.6324 86.2565 28.7903 78.7402 27.0854 69.0505C26.1509 68.9856 25.4755 68.8471 24.8954 68.5516C23.9353 68.0624 23.1547 67.2818 22.6655 66.3217C22.1094 65.2302 22.1094 63.8013 22.1094 60.9436C22.1094 58.086 22.1094 56.6571 22.6655 55.5656C23.1547 54.6055 23.9353 53.8249 24.8954 53.3357C25.5329 53.0109 26.2856 52.8758 27.3708 52.8196C29.5429 43.7984 37.1024 36.9268 46.4862 35.7675C47.8604 35.5977 49.4958 35.5977 52.7666 35.5977H58.3629L59.072 32.7431C56.9165 32.1341 55.3369 30.1525 55.3369 27.802C55.3369 24.9666 57.6355 22.668 60.4709 22.668C63.3064 22.668 65.605 24.9666 65.605 27.802C65.605 30.1525 64.0255 32.134 61.87 32.7431L62.5791 35.5977H68.0741C71.345 35.5977 72.9804 35.5977 74.3546 35.7675C83.7507 36.9283 91.3176 43.8164 93.4785 52.8551C94.2939 52.9265 94.9042 53.0654 95.4347 53.3357C96.3948 53.8249 97.1754 54.6055 97.6646 55.5656C98.2208 56.6571 98.2208 58.086 98.2208 60.9436C98.2208 63.8013 98.2208 65.2302 97.6646 66.3217C97.1754 67.2818 96.3948 68.0624 95.4347 68.5516C94.9679 68.7894 94.4393 68.9256 93.7636 69.0035C92.2071 77.9601 85.4089 85.0681 76.62 87.0763ZM68.0741 41.9721H52.7666C49.3056 41.9721 48.1545 41.9842 47.2677 42.0937C39.9285 43.0004 34.1463 48.7826 33.2397 56.1218C33.1301 57.0086 33.118 58.1597 33.118 61.6206C33.118 65.0816 33.1301 66.2327 33.2397 67.1195C34.1463 74.4587 39.9285 80.2409 47.2677 81.1476C48.1545 81.2571 49.3056 81.2692 52.7666 81.2692H68.0742C71.5351 81.2692 72.6862 81.2571 73.573 81.1476C80.9123 80.2409 86.6944 74.4587 87.6011 67.1195C87.7107 66.2327 87.7228 65.0816 87.7228 61.6206C87.7228 58.1597 87.7107 57.0086 87.6011 56.1218C86.6944 48.7826 80.9123 43.0004 73.573 42.0937C72.6862 41.9842 71.5351 41.9721 68.0741 41.9721Z" fill="white"/>
</g>
<path d="M25.0277 148.52C23.8437 149.064 22.5877 149.336 21.2597 149.336C19.3557 149.336 17.8837 148.832 16.8437 147.824C15.8197 146.8 15.3077 145.336 15.3077 143.432V138.08H17.7797V143.384C17.7797 144.616 18.0917 145.544 18.7157 146.168C19.3397 146.792 20.2597 147.104 21.4757 147.104C22.0837 147.104 22.6997 147.032 23.3237 146.888C23.9477 146.728 24.5157 146.512 25.0277 146.24V138.08H27.4997V155H25.0277V148.52ZM36.5912 155.24C35.4232 155.24 34.3512 154.96 33.3752 154.4C32.4152 153.84 31.6552 153.072 31.0952 152.096C30.5352 151.12 30.2552 150.024 30.2552 148.808C30.2552 147.592 30.5352 146.496 31.0952 145.52C31.6552 144.528 32.4152 143.752 33.3752 143.192C34.3512 142.632 35.4232 142.352 36.5912 142.352C37.5992 142.352 38.4872 142.56 39.2552 142.976C40.0392 143.376 40.6392 143.856 41.0552 144.416V142.592H43.3112V155H41.0552V153.176C40.6392 153.736 40.0392 154.224 39.2552 154.64C38.4872 155.04 37.5992 155.24 36.5912 155.24ZM36.8312 153.128C37.6152 153.128 38.3192 152.944 38.9432 152.576C39.5832 152.192 40.0792 151.672 40.4312 151.016C40.7832 150.36 40.9592 149.624 40.9592 148.808C40.9592 147.992 40.7832 147.256 40.4312 146.6C40.0792 145.944 39.5832 145.432 38.9432 145.064C38.3192 144.68 37.6152 144.488 36.8312 144.488C36.0632 144.488 35.3672 144.68 34.7432 145.064C34.1192 145.432 33.6232 145.944 33.2552 146.6C32.9032 147.256 32.7272 147.992 32.7272 148.808C32.7272 149.624 32.9032 150.36 33.2552 151.016C33.6232 151.672 34.1192 152.192 34.7432 152.576C35.3672 152.944 36.0632 153.128 36.8312 153.128ZM52.0091 155H49.6571V144.752H45.3611V142.592H56.3051V144.752H52.0091V155ZM64.5893 149.384H57.1493V147.152H64.5893V149.384ZM73.7051 143.792C74.7771 143.792 75.7371 144.032 76.5851 144.512C77.4331 144.992 78.0971 145.664 78.5771 146.528C79.0571 147.392 79.2971 148.376 79.2971 149.48C79.2971 150.584 79.0331 151.576 78.5051 152.456C77.9931 153.336 77.2651 154.024 76.3211 154.52C75.3931 155 74.3371 155.24 73.1531 155.24C72.1451 155.24 71.2411 155.064 70.4411 154.712C69.6411 154.344 68.9691 153.816 68.4251 153.128C67.9291 152.504 67.5611 151.76 67.3211 150.896C67.0811 150.032 66.9611 148.992 66.9611 147.776C66.9611 145.248 67.4891 143.272 68.5451 141.848C69.6171 140.408 71.4011 139.576 73.8971 139.352C74.5051 139.288 74.9691 139.2 75.2891 139.088C75.6091 138.976 75.8411 138.824 75.9851 138.632C76.1451 138.424 76.2571 138.128 76.3211 137.744L78.4091 137.912C78.3451 138.824 78.1131 139.536 77.7131 140.048C77.3291 140.544 76.8251 140.896 76.2011 141.104C75.5931 141.312 74.8411 141.456 73.9451 141.536C72.3451 141.68 71.2091 142.104 70.5371 142.808C69.8811 143.512 69.4971 144.552 69.3851 145.928C70.4091 144.504 71.8491 143.792 73.7051 143.792ZM73.2011 153.128C74.2891 153.128 75.1691 152.792 75.8411 152.12C76.5291 151.448 76.8731 150.576 76.8731 149.504C76.8731 148.432 76.5291 147.568 75.8411 146.912C75.1691 146.24 74.2891 145.904 73.2011 145.904C72.0811 145.904 71.1771 146.24 70.4891 146.912C69.8171 147.568 69.4811 148.432 69.4811 149.504C69.4811 150.576 69.8251 151.448 70.5131 152.12C71.2011 152.792 72.0971 153.128 73.2011 153.128ZM87.5025 155.24C86.2385 155.24 85.1105 154.968 84.1185 154.424C83.1265 153.88 82.3505 153.12 81.7905 152.144C81.2305 151.168 80.9505 150.056 80.9505 148.808C80.9505 147.56 81.2305 146.448 81.7905 145.472C82.3505 144.496 83.1265 143.736 84.1185 143.192C85.1105 142.632 86.2385 142.352 87.5025 142.352C88.7665 142.352 89.8945 142.632 90.8865 143.192C91.8785 143.736 92.6545 144.496 93.2145 145.472C93.7745 146.448 94.0545 147.56 94.0545 148.808C94.0545 150.056 93.7745 151.168 93.2145 152.144C92.6545 153.12 91.8785 153.88 90.8865 154.424C89.8945 154.968 88.7665 155.24 87.5025 155.24ZM87.5025 153.08C88.7185 153.08 89.7025 152.688 90.4545 151.904C91.2225 151.12 91.6065 150.088 91.6065 148.808C91.6065 147.528 91.2225 146.496 90.4545 145.712C89.7025 144.912 88.7185 144.512 87.5025 144.512C86.2865 144.512 85.3025 144.912 84.5505 145.712C83.7985 146.496 83.4225 147.528 83.4225 148.808C83.4225 150.072 83.7985 151.104 84.5505 151.904C85.3025 152.688 86.2865 153.08 87.5025 153.08ZM101.556 155H99.204V144.752H94.908V142.592H105.852V144.752H101.556V155ZM39.5927 184.672V178.84H39.8567C40.5447 178.84 41.0647 178.536 41.4167 177.928C41.7847 177.32 42.0247 176.368 42.1367 175.072L42.7367 168.592H51.5207V178.84H53.6087V184.672H51.2567V181H41.9447V184.672H39.5927ZM49.1687 178.84V170.752H44.9207L44.5127 175.072C44.4167 176.096 44.2727 176.904 44.0807 177.496C43.9047 178.088 43.6567 178.536 43.3367 178.84H49.1687ZM57.5029 168.592H66.2149V181H63.8629V170.752H59.6869L59.3269 176.608C59.2469 178.064 58.8709 179.184 58.1989 179.968C57.5269 180.736 56.6149 181.12 55.4629 181.12C55.1589 181.12 54.8229 181.096 54.4549 181.048L54.2149 178.792C54.4229 178.808 54.7349 178.816 55.1509 178.816C55.7909 178.816 56.2469 178.656 56.5189 178.336C56.7909 178.016 56.9509 177.456 56.9989 176.656L57.5029 168.592ZM79.0596 168.592V181H76.7076V176.776H74.2356L71.4516 181H68.7396L71.7876 176.44C70.9556 176.136 70.2916 175.656 69.7956 175C69.3156 174.344 69.0756 173.576 69.0756 172.696C69.0756 171.912 69.2756 171.208 69.6756 170.584C70.0756 169.96 70.6356 169.472 71.3556 169.12C72.0756 168.768 72.8916 168.592 73.8036 168.592H79.0596ZM76.7076 174.712V170.68H73.8036C73.0996 170.68 72.5316 170.864 72.0996 171.232C71.6676 171.6 71.4516 172.088 71.4516 172.696C71.4516 173.304 71.6676 173.792 72.0996 174.16C72.5316 174.528 73.0996 174.712 73.8036 174.712H76.7076ZM18.5381 207H16.1861V194.592H26.7461V207H24.3941V196.752H18.5381V207ZM29.9908 211.92V194.592H32.2708V196.416C32.6868 195.856 33.2788 195.376 34.0468 194.976C34.8308 194.56 35.7268 194.352 36.7348 194.352C37.8868 194.352 38.9428 194.632 39.9028 195.192C40.8788 195.752 41.6468 196.528 42.2068 197.52C42.7668 198.496 43.0468 199.592 43.0468 200.808C43.0468 202.024 42.7668 203.12 42.2068 204.096C41.6468 205.072 40.8788 205.84 39.9028 206.4C38.9428 206.96 37.8868 207.24 36.7348 207.24C35.7428 207.24 34.8548 207.048 34.0708 206.664C33.3028 206.264 32.7268 205.808 32.3428 205.296V211.92H29.9908ZM36.4948 205.128C37.2628 205.128 37.9588 204.944 38.5828 204.576C39.2068 204.192 39.6948 203.672 40.0468 203.016C40.4148 202.36 40.5988 201.624 40.5988 200.808C40.5988 199.992 40.4148 199.256 40.0468 198.6C39.6948 197.944 39.2068 197.432 38.5828 197.064C37.9588 196.68 37.2628 196.488 36.4948 196.488C35.6948 196.488 34.9748 196.672 34.3348 197.04C33.7108 197.408 33.2228 197.928 32.8708 198.6C32.5188 199.256 32.3428 199.992 32.3428 200.808C32.3428 201.624 32.5188 202.36 32.8708 203.016C33.2228 203.672 33.7108 204.192 34.3348 204.576C34.9748 204.944 35.6948 205.128 36.4948 205.128ZM47.8568 204.912L53.2568 194.592H56.6407V207H54.3608V196.704L48.9608 207H45.5768V194.592H47.8568V204.912ZM71.8502 200.712C71.8502 201.032 71.8422 201.28 71.8262 201.456H61.5782C61.7062 202.56 62.1382 203.44 62.8742 204.096C63.6102 204.752 64.5462 205.08 65.6822 205.08C66.4662 205.08 67.1622 204.928 67.7702 204.624C68.3942 204.304 68.8662 203.888 69.1862 203.376L71.3942 203.736C70.9142 204.856 70.1382 205.72 69.0662 206.328C68.0102 206.936 66.8342 207.24 65.5382 207.24C64.3062 207.24 63.2022 206.968 62.2262 206.424C61.2502 205.864 60.4902 205.096 59.9462 204.12C59.4022 203.144 59.1302 202.04 59.1302 200.808C59.1302 199.56 59.4022 198.448 59.9462 197.472C60.4902 196.496 61.2422 195.736 62.2022 195.192C63.1622 194.632 64.2582 194.352 65.4902 194.352C66.7062 194.352 67.7942 194.632 68.7542 195.192C69.7302 195.736 70.4902 196.496 71.0342 197.472C71.5782 198.432 71.8502 199.512 71.8502 200.712ZM65.4902 196.44C64.5462 196.44 63.7302 196.72 63.0422 197.28C62.3702 197.84 61.9222 198.592 61.6982 199.536H69.2822C69.0742 198.608 68.6262 197.864 67.9382 197.304C67.2662 196.728 66.4502 196.44 65.4902 196.44ZM81.1556 204.216L84.5876 194.592H88.2116V207H85.9316V196.488L82.1636 207H80.0516L76.4036 196.392V207H74.1236V194.592H77.8436L81.1556 204.216ZM97.0599 207.24C95.8919 207.24 94.8199 206.96 93.8439 206.4C92.8839 205.84 92.1239 205.072 91.5639 204.096C91.0039 203.12 90.7239 202.024 90.7239 200.808C90.7239 199.592 91.0039 198.496 91.5639 197.52C92.1239 196.528 92.8839 195.752 93.8439 195.192C94.8199 194.632 95.8919 194.352 97.0599 194.352C98.0679 194.352 98.9559 194.56 99.7239 194.976C100.508 195.376 101.108 195.856 101.524 196.416V194.592H103.78V207H101.524V205.176C101.108 205.736 100.508 206.224 99.7239 206.64C98.9559 207.04 98.0679 207.24 97.0599 207.24ZM97.2999 205.128C98.0839 205.128 98.7879 204.944 99.4119 204.576C100.052 204.192 100.548 203.672 100.9 203.016C101.252 202.36 101.428 201.624 101.428 200.808C101.428 199.992 101.252 199.256 100.9 198.6C100.548 197.944 100.052 197.432 99.4119 197.064C98.7879 196.68 98.0839 196.488 97.2999 196.488C96.5319 196.488 95.8359 196.68 95.2119 197.064C94.5879 197.432 94.0919 197.944 93.7239 198.6C93.3719 199.256 93.1959 199.992 93.1959 200.808C93.1959 201.624 93.3719 202.36 93.7239 203.016C94.0919 203.672 94.5879 204.192 95.2119 204.576C95.8359 204.944 96.5319 205.128 97.2999 205.128ZM21.5367 226.664C22.1927 226.856 22.7367 227.208 23.1687 227.72C23.6007 228.216 23.8167 228.832 23.8167 229.568C23.8167 230.256 23.6167 230.88 23.2167 231.44C22.8167 231.984 22.2407 232.424 21.4887 232.76C20.7527 233.08 19.8967 233.24 18.9207 233.24C17.6087 233.24 16.4807 232.936 15.5367 232.328C14.5927 231.704 13.9687 230.872 13.6647 229.832L15.8487 229.472C16.3767 230.624 17.3927 231.2 18.8967 231.2C19.7287 231.2 20.3607 231.048 20.7927 230.744C21.2407 230.424 21.4647 229.984 21.4647 229.424C21.4647 228.928 21.2567 228.528 20.8407 228.224C20.4407 227.92 19.7927 227.768 18.8967 227.768H17.2647V225.704H18.8967C19.6647 225.704 20.2487 225.56 20.6487 225.272C21.0647 224.984 21.2727 224.6 21.2727 224.12C21.2727 223.608 21.0487 223.192 20.6007 222.872C20.1687 222.552 19.6327 222.392 18.9927 222.392C18.3687 222.392 17.8087 222.544 17.3127 222.848C16.8167 223.152 16.4407 223.568 16.1847 224.096L14.0007 223.712C14.3687 222.64 15.0007 221.816 15.8967 221.24C16.8087 220.648 17.8647 220.352 19.0647 220.352C19.9287 220.352 20.7047 220.504 21.3927 220.808C22.0967 221.112 22.6407 221.536 23.0247 222.08C23.4247 222.624 23.6247 223.232 23.6247 223.904C23.6247 224.592 23.4327 225.176 23.0487 225.656C22.6647 226.136 22.1607 226.472 21.5367 226.664ZM31.9623 233.24C30.7943 233.24 29.7223 232.96 28.7463 232.4C27.7863 231.84 27.0263 231.072 26.4663 230.096C25.9063 229.12 25.6263 228.024 25.6263 226.808C25.6263 225.592 25.9063 224.496 26.4663 223.52C27.0263 222.528 27.7863 221.752 28.7463 221.192C29.7223 220.632 30.7943 220.352 31.9623 220.352C32.9703 220.352 33.8583 220.56 34.6263 220.976C35.4103 221.376 36.0103 221.856 36.4263 222.416V220.592H38.6823V233H36.4263V231.176C36.0103 231.736 35.4103 232.224 34.6263 232.64C33.8583 233.04 32.9703 233.24 31.9623 233.24ZM32.2023 231.128C32.9863 231.128 33.6903 230.944 34.3143 230.576C34.9543 230.192 35.4503 229.672 35.8023 229.016C36.1543 228.36 36.3303 227.624 36.3303 226.808C36.3303 225.992 36.1543 225.256 35.8023 224.6C35.4503 223.944 34.9543 223.432 34.3143 223.064C33.6903 222.68 32.9863 222.488 32.2023 222.488C31.4343 222.488 30.7383 222.68 30.1143 223.064C29.4903 223.432 28.9943 223.944 28.6263 224.6C28.2743 225.256 28.0983 225.992 28.0983 226.808C28.0983 227.624 28.2743 228.36 28.6263 229.016C28.9943 229.672 29.4903 230.192 30.1143 230.576C30.7383 230.944 31.4343 231.128 32.2023 231.128ZM46.7082 226.592L52.6602 233H49.5642L44.2842 227.264V233H41.9322V220.592H44.2842V226.208L49.3722 220.592H52.1802L46.7082 226.592ZM58.9857 233.24C57.8177 233.24 56.7457 232.96 55.7697 232.4C54.8097 231.84 54.0497 231.072 53.4897 230.096C52.9297 229.12 52.6497 228.024 52.6497 226.808C52.6497 225.592 52.9297 224.496 53.4897 223.52C54.0497 222.528 54.8097 221.752 55.7697 221.192C56.7457 220.632 57.8177 220.352 58.9857 220.352C59.9937 220.352 60.8817 220.56 61.6497 220.976C62.4337 221.376 63.0337 221.856 63.4497 222.416V220.592H65.7057V233H63.4497V231.176C63.0337 231.736 62.4337 232.224 61.6497 232.64C60.8817 233.04 59.9937 233.24 58.9857 233.24ZM59.2257 231.128C60.0097 231.128 60.7137 230.944 61.3377 230.576C61.9777 230.192 62.4737 229.672 62.8257 229.016C63.1777 228.36 63.3537 227.624 63.3537 226.808C63.3537 225.992 63.1777 225.256 62.8257 224.6C62.4737 223.944 61.9777 223.432 61.3377 223.064C60.7137 222.68 60.0097 222.488 59.2257 222.488C58.4577 222.488 57.7617 222.68 57.1377 223.064C56.5137 223.432 56.0177 223.944 55.6497 224.6C55.2977 225.256 55.1217 225.992 55.1217 226.808C55.1217 227.624 55.2977 228.36 55.6497 229.016C56.0177 229.672 56.5137 230.192 57.1377 230.576C57.7617 230.944 58.4577 231.128 59.2257 231.128ZM75.7477 226.664C76.4037 226.856 76.9477 227.208 77.3797 227.72C77.8117 228.216 78.0277 228.832 78.0277 229.568C78.0277 230.256 77.8277 230.88 77.4277 231.44C77.0277 231.984 76.4517 232.424 75.6997 232.76C74.9637 233.08 74.1077 233.24 73.1317 233.24C71.8197 233.24 70.6917 232.936 69.7477 232.328C68.8037 231.704 68.1797 230.872 67.8757 229.832L70.0597 229.472C70.5877 230.624 71.6037 231.2 73.1077 231.2C73.9397 231.2 74.5717 231.048 75.0037 230.744C75.4517 230.424 75.6757 229.984 75.6757 229.424C75.6757 228.928 75.4677 228.528 75.0517 228.224C74.6517 227.92 74.0037 227.768 73.1077 227.768H71.4757V225.704H73.1077C73.8757 225.704 74.4597 225.56 74.8597 225.272C75.2757 224.984 75.4837 224.6 75.4837 224.12C75.4837 223.608 75.2597 223.192 74.8117 222.872C74.3797 222.552 73.8437 222.392 73.2037 222.392C72.5797 222.392 72.0197 222.544 71.5237 222.848C71.0277 223.152 70.6517 223.568 70.3957 224.096L68.2117 223.712C68.5797 222.64 69.2117 221.816 70.1077 221.24C71.0197 220.648 72.0757 220.352 73.2757 220.352C74.1397 220.352 74.9157 220.504 75.6037 220.808C76.3077 221.112 76.8517 221.536 77.2357 222.08C77.6357 222.624 77.8357 223.232 77.8357 223.904C77.8357 224.592 77.6437 225.176 77.2597 225.656C76.8757 226.136 76.3717 226.472 75.7477 226.664ZM86.3892 233.24C85.1252 233.24 83.9972 232.968 83.0052 232.424C82.0132 231.88 81.2372 231.12 80.6772 230.144C80.1172 229.168 79.8372 228.056 79.8372 226.808C79.8372 225.56 80.1172 224.448 80.6772 223.472C81.2372 222.496 82.0132 221.736 83.0052 221.192C83.9972 220.632 85.1252 220.352 86.3892 220.352C87.6532 220.352 88.7812 220.632 89.7732 221.192C90.7652 221.736 91.5412 222.496 92.1012 223.472C92.6612 224.448 92.9412 225.56 92.9412 226.808C92.9412 228.056 92.6612 229.168 92.1012 230.144C91.5412 231.12 90.7652 231.88 89.7732 232.424C88.7812 232.968 87.6532 233.24 86.3892 233.24ZM86.3892 231.08C87.6052 231.08 88.5892 230.688 89.3412 229.904C90.1092 229.12 90.4932 228.088 90.4932 226.808C90.4932 225.528 90.1092 224.496 89.3412 223.712C88.5892 222.912 87.6052 222.512 86.3892 222.512C85.1732 222.512 84.1892 222.912 83.4372 223.712C82.6852 224.496 82.3092 225.528 82.3092 226.808C82.3092 228.072 82.6852 229.104 83.4372 229.904C84.1892 230.688 85.1732 231.08 86.3892 231.08ZM103.695 226.496C104.335 226.736 104.847 227.128 105.231 227.672C105.631 228.2 105.831 228.824 105.831 229.544C105.831 230.2 105.639 230.792 105.255 231.32C104.887 231.848 104.367 232.264 103.695 232.568C103.023 232.856 102.255 233 101.391 233H95.4635V220.592H101.175C101.991 220.592 102.719 220.736 103.359 221.024C103.999 221.312 104.495 221.704 104.847 222.2C105.215 222.696 105.399 223.264 105.399 223.904C105.399 224.512 105.247 225.04 104.943 225.488C104.655 225.92 104.239 226.256 103.695 226.496ZM97.8155 222.584V225.632H101.175C101.719 225.632 102.167 225.496 102.519 225.224C102.871 224.936 103.047 224.568 103.047 224.12C103.047 223.672 102.871 223.304 102.519 223.016C102.167 222.728 101.719 222.584 101.175 222.584H97.8155ZM101.391 231.008C102.015 231.008 102.519 230.848 102.903 230.528C103.287 230.208 103.479 229.792 103.479 229.28C103.479 228.768 103.287 228.352 102.903 228.032C102.519 227.712 102.015 227.552 101.391 227.552H97.8155V231.008H101.391Z" fill="white"/>
<defs>
<clipPath id="paint0_angular_312_125475_clip_path"><rect x="0.265625" y="-0.423828" width="120" height="120"/></clipPath><filter id="filter0_f_312_125475" x="-47.1582" y="-47.3164" width="214.316" height="214.316" filterUnits="userSpaceOnUse" color-interpolation-filters="sRGB">
<feFlood flood-opacity="0" result="BackgroundImageFix"/>
<feBlend mode="normal" in="SourceGraphic" in2="BackgroundImageFix" result="shape"/>
<feGaussianBlur stdDeviation="12.2119" result="effect1_foregroundBlur_312_125475"/>
</filter>
<clipPath id="paint1_angular_312_125475_clip_path"><path fill-rule="evenodd" clip-rule="evenodd" d="M-18.7667 -3.01612C-22.7344 4.77094 -22.7344 14.9648 -22.7344 35.3524V84.3312C-22.7344 104.719 -22.7344 114.913 -18.7667 122.7C-15.2766 129.549 -9.70761 135.118 -2.85792 138.609C4.92914 142.576 15.123 142.576 35.5106 142.576H84.4894C104.877 142.576 115.071 142.576 122.858 138.609C129.708 135.118 135.277 129.549 138.767 122.7C142.734 114.913 142.734 104.719 142.734 84.3313V35.3524C142.734 14.9648 142.734 4.77094 138.767 -3.01612C135.277 -9.86581 129.708 -15.4348 122.858 -18.9249C115.071 -22.8926 104.877 -22.8926 84.4895 -22.8926H35.5106C15.123 -22.8926 4.92914 -22.8926 -2.85792 -18.9249C-9.70761 -15.4348 -15.2766 -9.86581 -18.7667 -3.01612ZM2.92291 14.2926C0.0477594 19.9354 0.0477594 27.3222 0.0477594 42.0959V77.5878C0.0477594 92.3614 0.0477594 99.7483 2.92291 105.391C5.45196 110.355 9.48745 114.39 14.451 116.919C20.0938 119.794 27.4806 119.794 42.2543 119.794H77.7462C92.5198 119.794 99.9067 119.794 105.549 116.919C110.513 114.39 114.549 110.355 117.078 105.391C119.953 99.7483 119.953 92.3614 119.953 77.5878V42.0959C119.953 27.3222 119.953 19.9354 117.078 14.2926C114.549 9.32904 110.513 5.29355 105.549 2.7645C99.9067 -0.110647 92.5198 -0.110647 77.7462 -0.110647H42.2543C27.4806 -0.110647 20.0938 -0.110647 14.451 2.7645C9.48745 5.29355 5.45196 9.32904 2.92291 14.2926Z"/></clipPath><filter id="filter1_f_312_125475" x="-63.4408" y="-63.601" width="246.882" height="246.88" filterUnits="userSpaceOnUse" color-interpolation-filters="sRGB">
<feFlood flood-opacity="0" result="BackgroundImageFix"/>
<feBlend mode="normal" in="SourceGraphic" in2="BackgroundImageFix" result="shape"/>
<feGaussianBlur stdDeviation="20.3532" result="effect1_foregroundBlur_312_125475"/>
</filter>
<clipPath id="bgblur_1_312_125475_clip_path" transform="translate(51 51.3125)"><rect y="-0.3125" width="120" height="120.31"/>
</clipPath><filter id="filter3_d_312_125475" x="-7.89063" y="-7.33203" width="136.113" height="133.33" filterUnits="userSpaceOnUse" color-interpolation-filters="sRGB">
<feFlood flood-opacity="0" result="BackgroundImageFix"/>
<feColorMatrix in="SourceAlpha" type="matrix" values="0 0 0 0 0 0 0 0 0 0 0 0 0 0 0 0 0 0 127 0" result="hardAlpha"/>
<feOffset/>
<feGaussianBlur stdDeviation="15"/>
<feComposite in2="hardAlpha" operator="out"/>
<feColorMatrix type="matrix" values="0 0 0 0 0.120953 0 0 0 0 0 0 0 0 0 0.241906 0 0 0 0.35 0"/>
<feBlend mode="hard-light" in2="BackgroundImageFix" result="effect1_dropShadow_312_125475"/>
<feBlend mode="normal" in="SourceGraphic" in2="effect1_dropShadow_312_125475" result="shape"/>
</filter>
<clipPath id="clip0_312_125475">
<rect width="120" height="120" rx="31.305" transform="matrix(1 0 0 -1 0 120)" fill="white"/>
</clipPath>
</defs>
</svg>
