<svg width="46" height="45" viewBox="0 0 46 45" fill="none" xmlns="http://www.w3.org/2000/svg">
<path d="M9.60938 38.6333H14.8396M36.0094 38.6333H31.2773M14.8396 38.6333H23.0584H31.2773M14.8396 38.6333L13.4698 34.6725L12.0999 30.7117L14.3415 29.3604M31.2773 38.6333L32.7716 34.6725L34.266 30.7117L32.0743 29.3604M14.3415 29.3604L23.3075 23.9551L32.0743 29.3604M14.3415 29.3604C14.4411 28.6708 15.4741 22.9844 15.5986 20.2274H19.6962C19.7958 19.7614 20.5932 16.2666 20.5932 16.2666H25.2311L26.6698 20.2274H30.404L32.0743 29.3604" stroke="white" stroke-width="1.1" stroke-linejoin="bevel"/>
<path d="M39.3125 25.0669C39.3125 15.9542 31.9252 8.56689 22.8125 8.56689C13.6998 8.56689 6.3125 15.9542 6.3125 25.0669" stroke="white" stroke-width="1.1"/>
<circle cx="22.8099" cy="20.2992" r="1.83333" fill="white"/>
<circle cx="22.8099" cy="8.20052" r="1.83333" fill="white"/>
<path d="M22.8125 20.2996V7.09961" stroke="white" stroke-width="1.1"/>
</svg>
